# xmcd CD database file
#
# Track frame offsets:
#	150
#	19297
#	39850
#	59242
#	82945
#	100762
#	119710
#	138080
#	154776
#	174960
#	194105
#	210785
#	228494
#	245080
#
# Disc length: 3476 seconds
#
# Revision: 3
# Processed by: cddbd v1.5.2PL0 Copyright (c) Steve Scherf et al.
# Submitted via: CDex 1.51
#
DISCID=bc0d920e
DTITLE=Sheryl Crow - Wildflower
DYEAR=2005
DGENRE=Rock
TTITLE0=I Know Why
TTITLE1=Perfect Lie
TTITLE2=Good Is Good
TTITLE3=Chances Are
TTITLE4=Wildflower
TTITLE5=Lifetimes
TTITLE6=Letter To God
TTITLE7=Live It Up
TTITLE8=I Don't Wanna Know
TTITLE9=Always On Your Side
TTITLE10=Where Has All The Love Gone
TTITLE11=Wildflower (Acoustic Version)
TTITLE12=Where Has All The Love Gone (Acoustic Version)
TTITLE13=Letter To God (Acoustic Version)
EXTD=YEAR: 2005
EXTT0=
EXTT1=
EXTT2=
EXTT3=
EXTT4=
EXTT5=
EXTT6=
EXTT7=
EXTT8=
EXTT9=
EXTT10=
EXTT11=
EXTT12=
EXTT13=
PLAYORDER=
